<?xml version="1.0" encoding="UTF-8"?>
<svg id="Laag_1" data-name="Laag 1" xmlns="http://www.w3.org/2000/svg" viewBox="0 0 994.89 342.39">
  <defs>
    <style>
      .cls-1 {
        fill: none;
      }

      .cls-2 {
        fill: #53dfc8;
      }
    </style>
  </defs>
  <polygon class="cls-2" points=".7 83.04 77.42 83.04 77.42 339.05 .42 339.05 .42 4.05 77.42 4.05 77.42 4.09 .7 4.09 .7 83.04"/>
  <rect class="cls-2" x="77.42" y="4.09" width="78.57" height="78.95"/>
  <path class="cls-2" d="M152.23,83.04h-33.2c5.38-1,10.93-1.52,16.6-1.52s11.22.52,16.6,1.52Z"/>
  <path class="cls-2" d="M155.82,4.8c-5.04-.68-10.15-1.12-15.31-1.33-2.29-.09-4.6-.14-6.91-.14s-4.61.05-6.9.14H.53v65.61c-.09.12-.19.25-.28.37v183.61h-.25l.25,19.17v66.2h77V82.42h74.81c42.2,7.79,74.17,44.79,74.17,89.26,0,50.13-39.42,86.11-89.98,88.44-6.92.32-20.96.08-20.96.08v77.17s17.68.48,23.87.48c92.52,0,161.96-74.49,161.96-167.01,0-84.98-63.28-155.18-145.3-166.04Z"/>
  <rect class="cls-2" x="338.18" y="114.2" width="65.99" height="226.15"/>
  <circle class="cls-2" cx="371.85" cy="41.93" r="35.53"/>
  <path class="cls-2" d="M678.51,237.98c-17.32,17.46-41.33,28.28-67.87,28.28-52.8,0-95.6-42.81-95.6-95.61s42.8-95.6,95.6-95.6c25.99,0,49.55,10.37,66.78,27.19l52.08-54.78C698.75,18.06,657.07,0,611.18,0c-94.54,0-171.19,76.65-171.19,171.2s76.65,171.19,171.19,171.19c47.13,0,89.82-19.05,120.79-49.87l-53.46-54.54Z"/>
  <polyline class="cls-1" points="700.31 102.24 752.39 47.46 752.86 46.97"/>
  <polyline class="cls-1" points="701.4 237.98 754.86 292.52 755.04 292.7"/>
  <path class="cls-2" d="M866.07,110.17c-63.95,0-115.79,51.84-115.79,115.79s51.84,115.79,115.79,115.79,115.79-51.84,115.79-115.79-51.84-115.79-115.79-115.79ZM866.13,278.61c-29.28,0-53.01-23.73-53.01-53.01s23.73-53.01,53.01-53.01c14.41,0,27.48,5.75,37.03,15.08,9.86,9.63,15.98,23.07,15.98,37.93s-5.87,27.75-15.38,37.33c-9.6,9.68-22.92,15.68-37.63,15.68Z"/>
  <line class="cls-1" x1="994.89" y1="273.03" x2="942.48" y2="219.56"/>
</svg>