<?xml version="1.0" encoding="UTF-8"?>
<svg id="Laag_1" data-name="Laag 1" xmlns="http://www.w3.org/2000/svg" viewBox="0 0 300.7 335.72">
  <defs>
    <style>
      .cls-1 {
        fill: #53dfc8;
        stroke-width: 0px;
      }
    </style>
  </defs>
  <polygon class="cls-1" points=".28 79.71 77 79.71 77 335.72 0 335.72 0 .72 77 .72 77 .76 .28 .76 .28 79.71"/>
  <rect class="cls-1" x="77" y=".76" width="78.57" height="78.95"/>
  <path class="cls-1" d="m151.81,79.71h-33.2c5.38-1,10.93-1.52,16.6-1.52s11.22.52,16.6,1.52Z"/>
  <path class="cls-1" d="m155.4,1.47c-5.04-.68-10.15-1.12-15.31-1.33-2.29-.09-4.6-.14-6.91-.14s-4.61.05-6.9.14H.11v65.61c-.09.12-.19.25-.28.37v183.61h-.25l.25,19.17v66.2h77V79.09h74.81c42.2,7.79,74.17,44.79,74.17,89.26,0,50.13-39.42,86.11-89.98,88.44-6.92.32-20.96.08-20.96.08v77.17s17.68.48,23.87.48c92.52,0,161.96-74.49,161.96-167.01,0-84.98-63.28-155.18-145.3-166.04Z"/>
</svg>